<svg width="33" height="33" viewBox="0 0 33 33" fill="none" xmlns="http://www.w3.org/2000/svg">
<rect width="33" height="33" fill="black" fill-opacity="0"/>
<rect width="33" height="33" fill="black" fill-opacity="0"/>
<rect width="33" height="33" fill="black" fill-opacity="0"/>
<path d="M16.5 0C7.38731 0 0 7.38731 0 16.5C0 25.6127 7.38731 33 16.5 33C25.6127 33 33 25.6127 33 16.5C32.9883 7.39217 25.6078 0.0116795 16.5 0ZM17.2078 31.5489V28.6467C17.2078 28.2558 16.8909 27.9389 16.5 27.9389C16.1091 27.9389 15.7921 28.2558 15.7921 28.6467V31.5489C8.03048 31.1783 1.82165 24.9695 1.45109 17.2078H4.35328C4.74419 17.2078 5.06113 16.8909 5.06113 16.5C5.06113 16.1091 4.74419 15.7921 4.35328 15.7921H1.45109C1.82165 8.03048 8.03048 1.82165 15.7921 1.45109V4.35328C15.7921 4.74419 16.1091 5.06113 16.5 5.06113C16.8909 5.06113 17.2078 4.74419 17.2078 4.35328V1.45109C24.9695 1.82165 31.1783 8.03048 31.5489 15.7921H28.6467C28.2558 15.7921 27.9389 16.1091 27.9389 16.5C27.9389 16.8909 28.2558 17.2078 28.6467 17.2078H28.6538H31.556C31.1852 24.9721 24.9723 31.1819 17.2078 31.5489Z" fill="#333333"/>
<rect width="8.37785" height="15.9271" fill="black" fill-opacity="0" transform="translate(15.7923 8.3598)"/>
<rect width="8.37785" height="15.9271" fill="black" fill-opacity="0" transform="translate(15.7923 8.3598)"/>
<path d="M23.968 23.0831L17.208 16.2099V9.06765C17.208 8.67674 16.8911 8.3598 16.5001 8.3598C16.1092 8.3598 15.7923 8.67674 15.7923 9.06765V16.5001C15.7931 16.6858 15.8668 16.8637 15.9976 16.9956L22.9557 24.0741C23.2294 24.3536 23.6778 24.3584 23.9574 24.0847C24.2369 23.811 24.2416 23.3626 23.968 23.0831Z" fill="#333333"/>
</svg>
