<svg width="32" height="23" viewBox="0 0 32 23" fill="none" xmlns="http://www.w3.org/2000/svg">
<rect width="32" height="23" fill="black" fill-opacity="0"/>
<rect width="32" height="23" fill="black" fill-opacity="0"/>
<rect width="32" height="23" fill="black" fill-opacity="0"/>
<path d="M28.0935 0H3.91309C1.7546 0 0 1.65715 0 3.69576V19.3042C0 21.3429 1.7546 23 3.91309 23H28.0869C30.2454 23 32 21.3429 32 19.3042V3.70201C32.0066 1.6634 30.252 0 28.0935 0ZM30.2189 19.3042C30.2189 20.4111 29.2654 21.3116 28.0935 21.3116H3.91309C2.74115 21.3116 1.78771 20.4111 1.78771 19.3042V3.70201C1.78771 2.59516 2.74115 1.69467 3.91309 1.69467H28.0869C29.2588 1.69467 30.2123 2.59516 30.2123 3.70201V19.3042H30.2189Z" fill="#333333"/>
<path d="M20.1813 11.3064L28.0075 4.67775C28.3716 4.36509 28.4048 3.83355 28.0737 3.48336C27.7426 3.13942 27.1798 3.10815 26.8091 3.42082L16.0166 12.5695L13.9111 10.7936C13.9045 10.7873 13.8978 10.7811 13.8978 10.7748C13.8515 10.731 13.8051 10.6935 13.7522 10.656L5.18441 3.41457C4.81362 3.1019 4.25083 3.13317 3.91977 3.48336C3.58871 3.83355 3.62182 4.36509 3.9926 4.67775L11.9115 11.3626L4.02571 18.3352C3.66817 18.6541 3.6483 19.1856 3.98598 19.5296C4.16475 19.7047 4.40311 19.7985 4.64147 19.7985C4.85997 19.7985 5.07847 19.7234 5.25062 19.5734L13.2556 12.5008L15.4273 14.333C15.5995 14.4768 15.8113 14.5456 16.0232 14.5456C16.2351 14.5456 16.4536 14.4706 16.6191 14.3267L18.8504 12.4382L26.8091 19.5796C26.9812 19.7359 27.2063 19.811 27.4248 19.811C27.6632 19.811 27.8949 19.7234 28.0737 19.5483C28.4114 19.2107 28.3981 18.6729 28.0406 18.3539L20.1813 11.3064Z" fill="#333333"/>
</svg>
