<?xml version="1.0" encoding="utf-8"?>
<!-- Generator: Adobe Illustrator 15.1.0, SVG Export Plug-In . SVG Version: 6.00 Build 0)  -->
<!DOCTYPE svg PUBLIC "-//W3C//DTD SVG 1.1//EN" "http://www.w3.org/Graphics/SVG/1.1/DTD/svg11.dtd">
<svg version="1.1" id="Слой_1" xmlns="http://www.w3.org/2000/svg" xmlns:xlink="http://www.w3.org/1999/xlink" x="0px" y="0px"
	 width="34px" height="34px" viewBox="-35.5 36.5 34 34" enable-background="new -35.5 36.5 34 34" xml:space="preserve">
<g>
	<polyline fill="none" stroke="#ED2B2F" stroke-width="0.8333" stroke-miterlimit="10" points="-22,46.5 -13,41.141 -10,46.5 	"/>
</g>
<g>
	<polyline fill="none" stroke="#ED2B2F" stroke-width="0.8333" stroke-miterlimit="10" points="-26,46.5 -17,39.5 -15.5,42.5 	"/>
</g>
<g>
	<path fill="#404041" d="M-3.5,58.5h-12v-6h12V58.5z M-14.5,57.5h10v-4h-10V57.5z"/>
</g>
<g>
	
		<rect x="-12.707" y="54.793" transform="matrix(-0.7071 0.7071 -0.7071 -0.7071 18.7591 103.2297)" fill="#ED2B2F" width="1.414" height="1.414"/>
</g>
<g>
	<polygon fill="#404041" points="-6.5,64.5 -7,65.5 -29,65.5 -30.5,64.5 -30.5,45.5 -29.5,44.5 -29.5,43.5 -31.5,45.5 -31.5,64.5 
		-29,66.5 -7,66.5 -5.5,64.5 -5.5,58.5 -6.5,58.5 	"/>
	<polygon fill="#404041" points="-7,43.5 -11.5,43.5 -11.5,44.5 -7,44.5 -6.5,45.5 -6.5,53.5 -5.5,53.5 -5.5,45.5 	"/>
</g>
<rect x="-31.5" y="46.5" fill="#404041" width="25" height="1"/>
<rect x="-29.5" y="43.5" fill="#404041" width="5" height="1"/>
</svg>
