<?xml version="1.0" encoding="utf-8"?>
<!-- Generator: Adobe Illustrator 15.1.0, SVG Export Plug-In . SVG Version: 6.00 Build 0)  -->
<!DOCTYPE svg PUBLIC "-//W3C//DTD SVG 1.1//EN" "http://www.w3.org/Graphics/SVG/1.1/DTD/svg11.dtd">
<svg version="1.1" id="Слой_1" xmlns="http://www.w3.org/2000/svg" xmlns:xlink="http://www.w3.org/1999/xlink" x="0px" y="0px"
	 width="34px" height="34px" viewBox="-35.5 36.5 34 34" enable-background="new -35.5 36.5 34 34" xml:space="preserve">
<g>
	<rect x="-29" y="61.5" fill="#ED2B2F" width="8" height="1"/>
</g>
<g>
	<rect x="-29" y="59.5" fill="#ED2B2F" width="8" height="1"/>
</g>
<g>
	<rect x="-29" y="57.5" fill="#ED2B2F" width="5" height="1"/>
</g>
<g>
	<polygon fill="#404041" points="-6,50.5 -31,50.5 -31,49.5 -27,44.5 -14.5,44.5 -14.5,45.5 -27,45.5 -30,49.5 -6,49.5 	"/>
</g>
<g>
	<rect x="-19" y="44.5" fill="#404041" width="1" height="5"/>
</g>
<g>
	<path fill="#404041" d="M-8,50.5l-9-6v-5h1c0,0,5.98,4.977,6,5l4,5v1H-8z M-8,49.5h1l-3-4l-6-5v4L-8,49.5z"/>
</g>
<g>
	<path fill="#404041" d="M-4.5,63.5l-1.5,2h-25l-2.5-2v-12l2.5-2h25l1.5,2V63.5z M-6,50.5h-25l-1.5,1v12l1.5,1h25l0.5-1v-12L-6,50.5
		z"/>
</g>
<g>
	<path fill="#404041" d="M-16,54.5h-5l-1.5-1.5l1.5-1.5h5l1.5,1.5L-16,54.5L-16,54.5z M-21,52.5l-0.5,0.5l0.5,0.5h5l0.5-0.5
		l-0.5-0.5H-21L-21,52.5z"/>
</g>
</svg>
