<?xml version="1.0" encoding="utf-8"?>
<!-- Generator: Adobe Illustrator 15.1.0, SVG Export Plug-In . SVG Version: 6.00 Build 0)  -->
<!DOCTYPE svg PUBLIC "-//W3C//DTD SVG 1.1//EN" "http://www.w3.org/Graphics/SVG/1.1/DTD/svg11.dtd">
<svg version="1.1" id="Слой_1" xmlns="http://www.w3.org/2000/svg" xmlns:xlink="http://www.w3.org/1999/xlink" x="0px" y="0px"
	 width="34px" height="34px" viewBox="-35.5 36.5 34 34" enable-background="new -35.5 36.5 34 34" xml:space="preserve">
<g>
	<path fill="#FFFFFF" d="M-6.057,48.902"/>
</g>
<g>
	<polygon fill="#404041" points="-5.5,46.5 -6.5,46.5 -6.5,43.5 -8.5,42.5 -8.5,41.5 -5.5,43.5 	"/>
</g>
<g>
	<polygon fill="#404041" points="-30.5,46.5 -29.5,46.5 -29.5,43.5 -27.5,42.5 -27.5,41.5 -30.5,43.5 	"/>
</g>
<g>
	<path fill="#ED2B2F" d="M-8.5,47.5h-19v-9h19V47.5z M-26.5,46.5h17v-7h-17V46.5z"/>
</g>
<g>
	<line fill="none" x1="-31" y1="60.048" x2="-26.418" y2="60.048"/>
</g>
<g>
	<rect x="-32.5" y="59.5" fill="#404041" width="5" height="1"/>
</g>
<g>
	<rect x="-8.5" y="59.5" fill="#404041" width="5" height="1"/>
</g>
<g>
	<rect x="-24.5" y="59.5" fill="#ED2B2F" width="13" height="1"/>
</g>
<g>
	<rect x="-24.5" y="63.5" fill="#ED2B2F" width="13" height="1"/>
</g>
<g>
	<polygon fill="#404041" points="-8.5,65.5 -8.5,64.5 -5,64.5 -4.5,63.5 -4.5,48.5 -5,47.5 -30.5,47.5 -31.5,48.5 -31.5,63.5 
		-30,64.5 -27.5,64.5 -27.5,65.5 -30,65.5 -32.5,63.5 -32.5,48.5 -30.5,46.5 -5,46.5 -3.5,48.5 -3.5,63.5 -5,65.5 	"/>
</g>
<g>
	<polygon fill="#ED2B2F" points="-8.5,68.5 -27.5,68.5 -27.5,56.5 -26.5,56.5 -26.5,67.5 -9.5,67.5 -9.5,56.5 -8.5,56.5 	"/>
</g>
<g>
	<rect x="-29.5" y="55.5" fill="#404041" width="23" height="1"/>
</g>
<g>
	<rect x="-25.5" y="49.5" fill="#252528" width="3" height="1"/>
</g>
<g>
	<rect x="-29.5" y="49.5" fill="#ED2B2F" width="3" height="1"/>
</g>
</svg>
