<?xml version="1.0" encoding="utf-8"?>
<!-- Generator: Adobe Illustrator 15.1.0, SVG Export Plug-In . SVG Version: 6.00 Build 0)  -->
<!DOCTYPE svg PUBLIC "-//W3C//DTD SVG 1.1//EN" "http://www.w3.org/Graphics/SVG/1.1/DTD/svg11.dtd">
<svg version="1.1" id="Слой_1" xmlns="http://www.w3.org/2000/svg" xmlns:xlink="http://www.w3.org/1999/xlink" x="0px" y="0px"
	 width="34px" height="34px" viewBox="-35.5 36.5 34 34" enable-background="new -35.5 36.5 34 34" xml:space="preserve">
<polygon fill="#ED2B2F" points="-26.5,66.5 -30.5,66.5 -30.5,38.5 -8.5,38.5 -8.5,42.5 -9.5,42.5 -9.5,39.5 -29.5,39.5 -29.5,65.5 
	-26.5,65.5 "/>
<g>
	<path fill="#FFFFFF" d="M-10.725,68.664H-26.12c-0.275,0-0.5-0.225-0.5-0.5"/>
</g>
<g>
	<path fill="#404041" d="M-11,68.5c-0.275,0-0.5-0.225-0.5-0.5v-5c0-0.275,0.225-0.5,0.5-0.5h5c0.275,0,0.5,0.225,0.5,0.5
		s-0.225,0.5-0.5,0.5h-4.5V68C-10.5,68.275-10.725,68.5-11,68.5z"/>
</g>
<g>
	<path fill="#404041" d="M-16.5,51.5h-8v-5h8V51.5z M-23.5,50.5h6v-3h-6V50.5z"/>
</g>
<g>
	<rect x="-24.5" y="55.5" fill="#404041" width="16" height="1"/>
</g>
<g>
	<rect x="-24.5" y="59.5" fill="#404041" width="16" height="1"/>
</g>
<g>
	<rect x="-14.5" y="46.5" fill="#404041" width="6" height="1"/>
</g>
<g>
	<rect x="-14.5" y="48.5" fill="#404041" width="6" height="1"/>
</g>
<g>
	<rect x="-14.5" y="50.5" fill="#404041" width="6" height="1"/>
</g>
<g>
	<path fill="#404041" d="M-25.5,69.5l-2-2v-24l2-2h18l2,2v20l-5,6H-25.5z M-26.5,43.5v24l1,1h15l4-5v-20l-1-1h-18L-26.5,43.5z"/>
</g>
<g>
	<rect x="-24.5" y="57.5" fill="#404041" width="16" height="1"/>
</g>
</svg>
