<?xml version="1.0" encoding="utf-8"?>
<!-- Generator: Adobe Illustrator 15.1.0, SVG Export Plug-In . SVG Version: 6.00 Build 0)  -->
<!DOCTYPE svg PUBLIC "-//W3C//DTD SVG 1.1//EN" "http://www.w3.org/Graphics/SVG/1.1/DTD/svg11.dtd">
<svg version="1.1" id="Слой_1" xmlns="http://www.w3.org/2000/svg" xmlns:xlink="http://www.w3.org/1999/xlink" x="0px" y="0px"
	 width="34px" height="34px" viewBox="-35.5 36.5 34 34" enable-background="new -35.5 36.5 34 34" xml:space="preserve">
<polygon fill="#ED2B2F" points="-26.5,66.5 -30.5,66.5 -30.5,38.5 -8.5,38.5 -8.5,42.5 -9.5,42.5 -9.5,39.5 -29.5,39.5 -29.5,65.5 
	-26.5,65.5 "/>
<g>
	<path fill="#404041" d="M-9.5,49.5h-14v-4h14V49.5z M-22.5,48.5h12v-2h-12V48.5z"/>
</g>
<g>
	<path fill="#404041" d="M-19.5,55.5h-4v-4h4V55.5z M-22.5,54.5h2v-2h-2V54.5z"/>
</g>
<g>
	<path fill="#404041" d="M-19.5,60.5h-4v-4h4V60.5z M-22.5,59.5h2v-2h-2V59.5z"/>
</g>
<g>
	<path fill="#404041" d="M-19.5,65.5h-4v-4h4V65.5z M-22.5,64.5h2v-2h-2V64.5z"/>
</g>
<g>
	<path fill="#404041" d="M-14.5,55.5h-4v-4h4V55.5z M-17.5,54.5h2v-2h-2V54.5z"/>
</g>
<g>
	<path fill="#404041" d="M-14.5,60.5h-4v-4h4V60.5z M-17.5,59.5h2v-2h-2V59.5z"/>
</g>
<g>
	<path fill="#404041" d="M-14.5,65.5h-4v-4h4V65.5z M-17.5,64.5h2v-2h-2V64.5z"/>
</g>
<g>
	<path fill="#404041" d="M-9.5,55.5h-4v-4h4V55.5z M-12.5,54.5h2v-2h-2V54.5z"/>
</g>
<g>
	<path fill="#404041" d="M-9.5,65.5h-4v-9h4V65.5z M-12.5,64.5h2v-7h-2V64.5z"/>
</g>
<g>
	<path fill="#404041" d="M-5.5,67.5l-2,2h-18l-2-2v-24l2-2h18l2,2V67.5z M-6.5,43.5l-1-1h-18l-1,1v24l1,1h18l1-1V43V43.5z"/>
</g>
</svg>
