<svg id="Layer_1" data-name="Layer 1" xmlns="http://www.w3.org/2000/svg" viewBox="0 0 750 750">
    <style type="text/css">
    .st0 {
        fill: #696A70;
    }
    .st1 {
        fill: #006EE3;
    }
    </style>
    <title>Resources</title>
    <path class="st1" d="M312.93,348.18c-7.86,7.18-15.7,15.42-24.61,22.28-19.86,15.28-42.59,23.49-67.65,25.4-28.25,2.15-54.08-5-78.44-19C113,360,83.52,343.63,54.15,327.05c-2-1.11-3.91-2.24-6.3-3.61l24.39-14.11Q128,277.14,183.66,245l117-67.51q50.71-29.28,101.41-58.59c10.58-6.11,21.12-12.28,31.78-18.24a5.45,5.45,0,0,1,4.57-.11q72.13,40.81,144.14,81.82,58.73,33.31,117.51,66.52c.69.39,1.35.81,2.66,1.6-4.54,2.69-8.65,5.19-12.82,7.59Q614.52,301.52,539.1,345c-21.17,12.2-42.22,24.62-63.6,36.44a119.7,119.7,0,0,1-50.08,14.41q-52.37,3.74-93-29.45C325.46,360.66,319.2,354.07,312.93,348.18Z" />
    <path class="st0" d="M48.07,411.55C59.31,405,70.2,398.68,81.19,392.49a4.63,4.63,0,0,1,3.84.22q58.52,32.93,116.93,66,54.63,30.87,109.23,61.74a5.46,5.46,0,0,0,6.2.07q88.37-51,176.83-101.77,76.71-44.08,153.44-88.11c5.87-3.37,11.68-6.86,17.64-10.06,1.28-.68,3.45-1,4.6-.39,11,6,21.79,12.21,33,18.54-10.72,6.21-21.15,12.28-31.6,18.32q-45,26-90.09,52l-110.4,63.76L332.39,552.69c-5.17,3-10.27,6.12-15.56,8.9a5.58,5.58,0,0,1-4.56,0q-43-24.26-86-48.74Q180,486.61,133.72,460.44,91.6,436.57,49.5,412.65C49.17,412.46,48.89,412.18,48.07,411.55Z" />
    <path class="st0" d="M47.84,500.24C59.47,493.54,70.71,487,82,480.63c.74-.41,2.28.07,3.19.59Q148.16,516.85,211,552.56q50.78,28.8,101.59,57.49a5.1,5.1,0,0,0,4.22-.07q63.21-36.36,126.3-72.91,70.38-40.65,140.79-81.25,40.2-23.2,80.42-46.38c1.48-.85,4-1.51,5.27-.82,11,5.91,21.75,12.15,33.21,18.64-6.81,4-13.14,7.71-19.51,11.39q-56.23,32.48-112.49,64.93-50.72,29.27-101.46,58.51Q410,596.37,350.71,630.68c-11,6.38-22.09,12.74-33.08,19.21a5.34,5.34,0,0,1-6.11,0Q255.63,618,199.66,586.29,129,546.21,58.2,506.2C54.86,504.32,51.55,502.38,47.84,500.24Z" />
</svg>