<svg width="33" height="27" viewBox="0 0 33 27" fill="none" xmlns="http://www.w3.org/2000/svg">
<rect width="33" height="27" fill="black" fill-opacity="0"/>
<rect width="3.8227" height="5.67987" fill="black" fill-opacity="0" transform="translate(25.5803 2.59906)"/>
<rect width="3.8227" height="5.67987" fill="black" fill-opacity="0" transform="translate(25.5803 2.59906)"/>
<path d="M27.5838 2.59906H25.9731C25.7326 2.59906 25.5804 2.74673 25.5804 2.90989H25.5803V7.96035C25.5803 8.17013 25.8367 8.27893 26.1012 8.27893C26.3577 8.27893 26.6221 8.1702 26.6221 7.96035V6.15774H27.5197C28.5775 6.15774 29.403 5.66818 29.403 4.39393V4.34737C29.403 3.07305 28.6016 2.59906 27.5838 2.59906ZM28.3611 4.47167C28.3611 5.0777 28.0406 5.36523 27.5197 5.36523H26.6221V3.48487H27.5197C28.0406 3.48487 28.3611 3.77239 28.3611 4.37843V4.47167Z" fill="#333333"/>
<rect width="11.6664" height="3.06543" fill="black" fill-opacity="0" transform="translate(7.36029 2.28607)"/>
<rect width="11.6664" height="3.06543" fill="black" fill-opacity="0" transform="translate(7.36029 2.28607)"/>
<path d="M18.889 4.57343C17.3677 3.09839 15.345 2.28607 13.1935 2.28607C11.042 2.28607 9.01936 3.09839 7.49801 4.57343C7.31438 4.75141 7.31438 5.03999 7.49801 5.21803C7.68157 5.396 7.97922 5.396 8.16278 5.21803C9.50656 3.91521 11.2931 3.19769 13.1935 3.19769C15.0938 3.19769 16.8804 3.91521 18.2241 5.21803C18.316 5.30701 18.4363 5.35151 18.5566 5.35151C18.6768 5.35151 18.7972 5.30701 18.889 5.21803C19.0726 5.04005 19.0726 4.75141 18.889 4.57343Z" fill="#333333"/>
<rect width="7.7875" height="2.28414" fill="black" fill-opacity="0" transform="translate(9.2999 4.94794)"/>
<rect width="7.7875" height="2.28414" fill="black" fill-opacity="0" transform="translate(9.2999 4.94794)"/>
<path d="M16.9497 6.454C14.8786 4.44592 11.5087 4.44592 9.43762 6.454C9.25399 6.63198 9.25399 6.92062 9.43762 7.0986C9.62118 7.27657 9.91889 7.27657 10.1024 7.0986C11.807 5.44602 14.5804 5.44602 16.2849 7.0986C16.3767 7.18758 16.4969 7.23208 16.6173 7.23208C16.7375 7.23208 16.8579 7.18758 16.9497 7.0986C17.1333 6.92062 17.1333 6.63198 16.9497 6.454Z" fill="#333333"/>
<rect width="3.97007" height="1.51881" fill="black" fill-opacity="0" transform="translate(11.2085 7.56396)"/>
<rect width="3.97007" height="1.51881" fill="black" fill-opacity="0" transform="translate(11.2085 7.56396)"/>
<path d="M15.0409 8.30467C14.0223 7.31706 12.3649 7.31706 11.3462 8.30467C11.1626 8.48265 11.1626 8.77123 11.3462 8.94927C11.5298 9.1273 11.8275 9.12724 12.0111 8.94927C12.6631 8.31711 13.724 8.31711 14.3761 8.94927C14.4679 9.03832 14.5882 9.08275 14.7085 9.08275C14.8288 9.08275 14.9491 9.03825 15.0409 8.94927C15.2245 8.77123 15.2245 8.48271 15.0409 8.30467Z" fill="#333333"/>
<rect width="19.8487" height="5.17101" fill="black" fill-opacity="0" transform="translate(3.99515 13.8469)"/>
<rect width="19.8487" height="5.17101" fill="black" fill-opacity="0" transform="translate(3.99515 13.8469)"/>
<path d="M23.1335 17.1818C22.93 17.0733 22.7293 16.9544 22.537 16.8284L19.4275 14.7917C18.4838 14.1736 17.3829 13.8469 16.244 13.8469H10.5367C9.0217 13.8469 7.59626 14.4178 6.52286 15.4546C5.97114 15.9876 5.3426 16.4334 4.65469 16.7797C4.24787 16.9845 3.99515 17.3877 3.99515 17.8318C3.99515 18.4858 4.5439 19.0179 5.21846 19.0179H7.1643C7.42391 19.0179 7.63441 18.8138 7.63441 18.5621C7.63441 18.3103 7.42391 18.1063 7.1643 18.1063H5.21846C5.06236 18.1063 4.93532 17.9831 4.93532 17.8317C4.93532 17.7292 4.99378 17.6361 5.08795 17.5887C5.8608 17.1996 6.56688 16.6988 7.1864 16.1004C8.0823 15.235 9.2721 14.7584 10.5366 14.7584H11.8144V18.1063H10.2526C9.99294 18.1063 9.78244 18.3103 9.78244 18.5621C9.78244 18.8138 9.99294 19.0179 10.2526 19.0179H23.143C23.5295 19.0179 23.8439 18.713 23.8439 18.3383C23.8439 17.8585 23.5716 17.4154 23.1335 17.1818ZM12.7547 18.1063V14.7585H16.2441C17.1947 14.7585 18.1136 15.0312 18.9012 15.5471L22.0108 17.5838C22.2267 17.7252 22.4519 17.8587 22.6805 17.9806C22.7397 18.0121 22.7892 18.0555 22.8265 18.1063H12.7547Z" fill="#333333"/>
<rect width="2.39236" height="0.91162" fill="black" fill-opacity="0" transform="translate(11.9974 19.7108)"/>
<rect width="2.39236" height="0.91162" fill="black" fill-opacity="0" transform="translate(11.9974 19.7108)"/>
<path d="M13.9197 19.7108H12.4676C12.2079 19.7108 11.9974 19.9149 11.9974 20.1666C11.9974 20.4183 12.2079 20.6224 12.4676 20.6224H13.9197C14.1793 20.6224 14.3898 20.4183 14.3898 20.1666C14.3898 19.9149 14.1793 19.7108 13.9197 19.7108Z" fill="#333333"/>
<rect width="33" height="27" fill="black" fill-opacity="0"/>
<rect width="33" height="27" fill="black" fill-opacity="0"/>
<path d="M32.5944 19.3282L32.4459 19.0893C31.8863 18.1888 30.9554 17.5548 29.892 17.3497L28.6782 17.1157V11.1511H31.8192C32.4659 11.1511 32.9919 10.641 32.9919 10.014V1.13709C32.9919 0.510052 32.4658 0 31.8192 0H22.6636C22.0168 0 21.4908 0.510114 21.4908 1.13709V4.50442C21.4908 4.75613 21.7012 4.96023 21.9609 4.96023C22.2206 4.96023 22.431 4.75613 22.431 4.50442V1.13709C22.431 1.01273 22.5354 0.911557 22.6636 0.911557H31.8193C31.9475 0.911557 32.0519 1.01273 32.0519 1.13709V10.0141C32.0519 10.1384 31.9475 10.2396 31.8193 10.2396H22.6636C22.5353 10.2396 22.431 10.1384 22.431 10.0141V7.46762C22.431 7.2159 22.2205 7.01181 21.9608 7.01181C21.7012 7.01181 21.4907 7.2159 21.4907 7.46762V10.0141C21.4907 10.6411 22.0168 11.1511 22.6635 11.1511H26.2252V16.6428L25.6013 16.5225C24.7402 16.3565 23.9007 15.8526 23.3441 15.488L20.2347 13.4513C19.0516 12.6765 17.6718 12.2669 16.2441 12.2669H10.5368C8.63772 12.2669 6.85089 12.9826 5.50556 14.2821C4.65427 15.1045 3.58268 15.6653 2.40661 15.9042L1.73166 16.0412C0.728253 16.2449 0 17.1143 0 18.1083V22.5226C0 23.0492 0.320653 23.5277 0.817005 23.7415L2.68949 24.5484C2.80273 25.1225 3.088 25.6708 3.54549 26.1143C4.15347 26.7038 4.95211 26.9986 5.75081 26.9986C6.54951 26.9986 7.34808 26.7038 7.95613 26.1143C8.34716 25.7352 8.61168 25.2794 8.75122 24.7966H24.364C24.5036 25.2794 24.7681 25.7352 25.1592 26.1143C25.7483 26.6854 26.5314 27 27.3645 27C28.1976 27 28.9808 26.6855 29.5699 26.1143C29.9609 25.7352 30.2254 25.2794 30.365 24.7966H31.2568C32.218 24.7966 33 24.0384 33 23.1064V20.7423C32.9999 20.244 32.8596 19.755 32.5944 19.3282ZM27.1655 11.1511H27.7381V16.9344L27.1655 16.824V11.1511ZM7.29123 25.4698C6.87976 25.8687 6.33269 26.0884 5.75074 26.0884C5.1688 26.0884 4.62172 25.8687 4.21025 25.4698C3.55019 24.8298 3.40337 23.8781 3.76908 23.0991C3.77204 23.0929 3.77488 23.0866 3.77784 23.0803C3.78899 23.0572 3.80079 23.0343 3.81284 23.0116C3.81851 23.0008 3.82418 22.9901 3.83011 22.9795C3.841 22.9598 3.85235 22.9401 3.86395 22.9206C3.87194 22.9072 3.88013 22.8939 3.88844 22.8807C3.89921 22.8635 3.9101 22.8463 3.92144 22.8294C3.93169 22.8141 3.94226 22.799 3.95296 22.7839C3.96353 22.769 3.97404 22.754 3.98499 22.7393C3.99756 22.7225 4.01064 22.706 4.02379 22.6895C4.03404 22.6766 4.04403 22.6636 4.0546 22.6509C4.07007 22.6324 4.08625 22.6143 4.10236 22.5961C4.11158 22.5858 4.12041 22.5753 4.12982 22.5651C4.15379 22.5393 4.17848 22.514 4.20387 22.4891C4.20607 22.487 4.20806 22.4848 4.21025 22.4826C4.21509 22.478 4.22018 22.4736 4.22508 22.469C4.24661 22.4485 4.26826 22.4282 4.29037 22.4088C4.29611 22.4037 4.30216 22.399 4.30797 22.394C4.33001 22.3751 4.35218 22.3563 4.37487 22.3384C4.37699 22.3367 4.37925 22.3351 4.38138 22.3334C5.17821 21.7082 6.32747 21.7089 7.12333 22.3359C7.12423 22.3367 7.1252 22.3373 7.12617 22.338C7.15047 22.3572 7.17425 22.3773 7.1979 22.3977C7.20216 22.4013 7.20654 22.4048 7.21073 22.4085C7.23806 22.4324 7.26487 22.4571 7.29117 22.4826C7.31953 22.5101 7.34685 22.5384 7.37341 22.5671C7.38507 22.5797 7.3961 22.5926 7.40738 22.6054C7.42117 22.6211 7.43503 22.6368 7.4483 22.6527C7.46319 22.6706 7.47756 22.6889 7.49174 22.7071C7.49974 22.7173 7.50766 22.7276 7.5154 22.7379C7.53261 22.7609 7.54936 22.7841 7.56554 22.8077C7.56831 22.8117 7.57102 22.8157 7.57373 22.8197C8.12673 23.6387 8.03263 24.7509 7.29123 25.4698ZM28.9049 25.4698C28.4934 25.8687 27.9463 26.0884 27.3644 26.0884C26.7824 26.0884 26.2354 25.8687 25.8239 25.4698C25.0824 24.7509 24.9883 23.6385 25.5414 22.8196C25.544 22.8157 25.5467 22.8117 25.5494 22.8078C25.5656 22.7842 25.5824 22.7609 25.5996 22.7378C25.6073 22.7276 25.6152 22.7174 25.6231 22.7074C25.6374 22.689 25.6518 22.6707 25.6668 22.6526C25.68 22.6368 25.6937 22.6213 25.7074 22.6058C25.7188 22.5929 25.73 22.5798 25.7418 22.5671C25.7683 22.5384 25.7957 22.5101 25.824 22.4826C26.2355 22.0837 26.7825 21.864 27.3644 21.864C27.9464 21.864 28.4935 22.0837 28.9049 22.4826C28.9333 22.5101 28.9606 22.5385 28.9872 22.5671C28.9989 22.5798 29.0099 22.5928 29.0213 22.6056C29.0351 22.6212 29.0488 22.6368 29.0621 22.6527C29.077 22.6707 29.0914 22.6889 29.1056 22.7072C29.1136 22.7174 29.1215 22.7276 29.1292 22.7379C29.1464 22.761 29.1632 22.7842 29.1794 22.8077C29.1821 22.8117 29.1848 22.8157 29.1875 22.8197C29.7404 23.6386 29.6463 24.7509 28.9049 25.4698ZM32.0598 23.1064H32.0597C32.0597 23.5357 31.6995 23.885 31.2567 23.885H30.4827C30.4643 23.2239 30.2236 22.5932 29.7905 22.0761C29.7876 22.0726 29.7848 22.069 29.7819 22.0655C29.7551 22.0338 29.7273 22.0027 29.699 21.9718C29.6918 21.964 29.685 21.9558 29.6777 21.948C29.6478 21.916 29.6169 21.8847 29.5854 21.8539C29.5801 21.8486 29.5752 21.8431 29.5698 21.8379C29.1647 21.4453 28.668 21.1739 28.1264 21.0427C27.8802 20.983 27.6248 20.9523 27.3644 20.9523C27.1561 20.9523 26.951 20.972 26.7512 21.0104C26.1518 21.1256 25.6009 21.4096 25.159 21.8379C25.1538 21.8431 25.1489 21.8484 25.1437 21.8536C25.1121 21.8847 25.0811 21.916 25.0511 21.9481C25.044 21.9557 25.0374 21.9635 25.0305 21.9712C25.002 22.0023 24.9739 22.0337 24.9469 22.0656C24.9442 22.0688 24.9417 22.0721 24.9389 22.0754C24.5055 22.5926 24.2646 23.2237 24.2461 23.8851H8.86904C8.85054 23.2229 8.6091 22.591 8.17456 22.0734C8.17256 22.071 8.17063 22.0685 8.16863 22.0661C8.14027 22.0325 8.11081 21.9995 8.08084 21.9669C8.0753 21.9609 8.07014 21.9547 8.06454 21.9487C8.02941 21.9112 7.99332 21.8742 7.956 21.838C7.80402 21.6906 7.64005 21.5617 7.46725 21.4511C6.94866 21.1195 6.3497 20.9537 5.75074 20.9537C4.95211 20.9537 4.15341 21.2485 3.54542 21.838C3.51068 21.8717 3.4771 21.9062 3.44423 21.9412C3.4345 21.9516 3.42515 21.9622 3.41555 21.9726C3.39235 21.998 3.36953 22.0237 3.3473 22.0497C3.33743 22.0613 3.32757 22.0729 3.3179 22.0846C3.2949 22.1125 3.27247 22.1406 3.25055 22.169C3.24372 22.1779 3.23669 22.1866 3.23006 22.1955C3.17115 22.2737 3.11649 22.3543 3.06596 22.437C3.06454 22.4393 3.06319 22.4417 3.06177 22.444C3.03708 22.4846 3.01343 22.5259 2.99081 22.5676C2.99016 22.5688 2.98952 22.57 2.98881 22.5712C2.8249 22.8736 2.71469 23.2007 2.66416 23.5399L1.19895 22.9085C1.04182 22.8408 0.940303 22.6893 0.940303 22.5226V18.1083C0.940303 17.5433 1.35428 17.0492 1.92463 16.9333L2.59958 16.7963C3.95438 16.5211 5.18878 15.875 6.16936 14.9279C7.33725 13.7997 8.88837 13.1784 10.537 13.1784H16.2443C17.4837 13.1784 18.6815 13.534 19.7085 14.2066L22.818 16.2432C23.442 16.652 24.3904 17.2183 25.4181 17.4165L29.7087 18.2438C30.5132 18.3989 31.2174 18.8785 31.6408 19.5597L31.7893 19.7987C31.9663 20.0834 32.0598 20.4098 32.0598 20.7423V23.1064Z" fill="#333333"/>
<rect width="2.85388" height="2.7676" fill="black" fill-opacity="0" transform="translate(4.32343 22.5923)"/>
<rect width="2.85388" height="2.7676" fill="black" fill-opacity="0" transform="translate(4.32343 22.5923)"/>
<path d="M6.75994 22.9976C6.49027 22.7362 6.13191 22.5923 5.75067 22.5923C5.36943 22.5923 5.01101 22.7363 4.74147 22.9976C4.47192 23.2589 4.32343 23.6065 4.32343 23.9761C4.32343 24.3457 4.47192 24.6932 4.74147 24.9546C5.01101 25.2159 5.36943 25.3599 5.75073 25.3599C6.13197 25.3599 6.4904 25.216 6.75994 24.9546C7.31642 24.415 7.31642 23.5371 6.75994 22.9976ZM6.09504 24.31C6.00307 24.3992 5.88074 24.4483 5.75067 24.4483C5.62054 24.4483 5.49827 24.3992 5.4063 24.3099C5.31432 24.2207 5.2636 24.1022 5.2636 23.976C5.2636 23.8499 5.31426 23.7313 5.4063 23.6421C5.49827 23.553 5.62054 23.5038 5.75067 23.5038C5.88074 23.5038 6.00307 23.5529 6.09504 23.6421C6.28492 23.8263 6.28492 24.1259 6.09504 24.31Z" fill="#333333"/>
<rect width="2.85383" height="2.7676" fill="black" fill-opacity="0" transform="translate(25.938 22.5923)"/>
<rect width="2.85383" height="2.7676" fill="black" fill-opacity="0" transform="translate(25.938 22.5923)"/>
<path d="M28.3738 22.9977C28.1043 22.7363 27.7458 22.5923 27.3645 22.5923C26.9833 22.5923 26.6249 22.7362 26.3553 22.9976C25.7989 23.5371 25.7989 24.415 26.3553 24.9546C26.6249 25.216 26.9833 25.3599 27.3645 25.3599C27.7458 25.3599 28.1042 25.216 28.3737 24.9546C28.6433 24.6933 28.7918 24.3458 28.7918 23.9761C28.7918 23.6065 28.6434 23.259 28.3738 22.9977ZM27.7089 24.31C27.6169 24.3992 27.4947 24.4483 27.3645 24.4483C27.2345 24.4483 27.1121 24.3992 27.0202 24.31C26.8303 24.1259 26.8303 23.8264 27.0202 23.6423C27.1121 23.5531 27.2345 23.5039 27.3645 23.5039C27.4947 23.5039 27.6169 23.553 27.709 23.6423C27.801 23.7314 27.8516 23.85 27.8516 23.9761C27.8516 24.1022 27.801 24.2208 27.7089 24.31Z" fill="#333333"/>
</svg>
